<svg width="424" height="404" viewBox="0 0 424 404" fill="none" xmlns="http://www.w3.org/2000/svg">
<g clip-path="url(#clip0_1_406)">
<path d="M448.577 227.04H125.615C120.639 227.04 116.604 223.011 116.604 218.042V35.2189C116.604 30.2499 120.639 26.221 125.615 26.221L449.182 26.165C451.58 26.165 453.877 27.1163 455.558 28.8062C457.25 30.5073 458.203 32.8015 458.192 35.1965L457.587 218.075C457.575 223.022 453.541 227.04 448.577 227.04ZM134.625 209.044H439.589L440.138 44.172L134.625 44.228V209.044Z" fill="#154C79" fill-opacity="0.8"/>
<path d="M287.549 547.281C284.927 547.281 282.428 546.14 280.724 544.148L-5.42401 211.819C-8.6627 208.047 -8.23685 202.373 -4.46024 199.128C-0.694838 195.894 5.0093 196.319 8.248 200.09L287.56 524.473L566.705 200.046C569.966 196.274 575.659 195.86 579.413 199.083C583.19 202.317 583.615 208.003 580.377 211.774L294.396 544.148C292.682 546.14 290.183 547.281 287.549 547.281Z" fill="#154C79" fill-opacity="0.8"/>
<path d="M446.817 230.388C444.251 230.388 441.774 229.292 440.059 227.344L285.342 52.1765L130.613 227.344C128.719 229.482 125.895 230.579 123.071 230.355L2.02841 219.88C-2.9361 219.454 -7.28425 216.366 -9.32384 211.811C-11.3522 207.267 -10.7583 201.962 -7.75492 197.978L116.66 33.1511C119.653 29.1782 125.301 28.3724 129.279 31.3829C133.257 34.371 134.042 40.0226 131.05 43.9844L11.3187 202.611L120.101 212.023L278.573 32.6139C281.991 28.7417 288.681 28.7417 292.088 32.6139L450.56 212.035L565.517 202.141C565.517 202.13 565.528 202.119 565.528 202.119L442.379 40.7165C439.365 36.7659 440.127 31.1143 444.083 28.1038C448.061 25.0933 453.698 25.8543 456.712 29.8049L582.439 194.576C583.974 196.579 584.59 199.12 584.142 201.593C582.114 213.053 577.138 219.208 569.35 219.88L447.59 230.355C447.332 230.377 447.075 230.388 446.817 230.388Z" fill="#154C79" fill-opacity="0.8"/>
<path d="M287.471 528.86C284.154 528.86 281.094 527.036 279.525 524.115L117.669 222.283C115.316 217.907 116.974 212.446 121.356 210.107C125.749 207.756 131.207 209.413 133.549 213.789L287.415 500.714L440.653 211.741C442.984 207.354 448.42 205.664 452.835 207.991C457.239 210.319 458.92 215.77 456.589 220.157L295.439 524.07C293.881 527.014 290.822 528.849 287.493 528.86C287.482 528.86 287.471 528.86 287.471 528.86Z" fill="#154C79" fill-opacity="0.8"/>
</g>
<defs>
<clipPath id="clip0_1_406">
<rect width="574" height="404" fill="white"/>
</clipPath>
</defs>
</svg>
