<svg width="409" height="404" viewBox="0 0 409 404" fill="none" xmlns="http://www.w3.org/2000/svg">
<g clip-path="url(#clip0_7_214)">
<path d="M462.577 230.04H139.615C134.639 230.04 130.604 226.011 130.604 221.042V38.2191C130.604 33.2501 134.639 29.2212 139.615 29.2212L463.182 29.1653C465.58 29.1653 467.877 30.1166 469.558 31.8065C471.25 33.5076 472.203 35.8018 472.192 38.1967L471.587 221.076C471.575 226.022 467.541 230.04 462.577 230.04ZM148.625 212.044H453.589L454.138 47.1723L148.625 47.2282V212.044Z" fill="#F5F8FA"/>
<path d="M297.549 547.282C294.927 547.282 292.428 546.14 290.724 544.148L4.57599 211.819C1.3373 208.048 1.76315 202.374 5.53976 199.128C9.30516 195.894 15.0093 196.319 18.248 200.091L297.56 524.474L576.705 200.046C579.966 196.275 585.659 195.86 589.413 199.084C593.19 202.318 593.615 208.003 590.377 211.775L304.396 544.148C302.682 546.14 300.183 547.282 297.549 547.282Z" fill="#F5F8FA"/>
<path d="M460.817 230.389C458.251 230.389 455.774 229.292 454.059 227.345L299.342 52.1766L144.613 227.345C142.719 229.482 139.895 230.579 137.071 230.355L16.0284 219.88C11.0639 219.455 6.71575 216.366 4.67616 211.811C2.64777 207.267 3.24172 201.962 6.24508 197.978L130.66 33.1512C133.653 29.1783 139.301 28.3725 143.279 31.383C147.257 34.3711 148.042 40.0228 145.05 43.9845L25.3187 202.611L134.101 212.023L292.573 32.614C295.991 28.7418 302.681 28.7418 306.088 32.614L464.56 212.035L579.517 202.141C579.517 202.13 579.528 202.119 579.528 202.119L456.379 40.7166C453.365 36.7661 454.127 31.1144 458.083 28.1039C462.061 25.0934 467.698 25.8544 470.712 29.805L596.439 194.576C597.974 196.579 598.59 199.12 598.142 201.593C596.114 213.053 591.138 219.208 583.35 219.88L461.59 230.355C461.332 230.377 461.075 230.389 460.817 230.389Z" fill="#F5F8FA"/>
<path d="M300.471 528.861C297.154 528.861 294.094 527.037 292.525 524.116L130.669 222.284C128.316 217.908 129.974 212.446 134.356 210.107C138.749 207.757 144.207 209.413 146.549 213.789L300.415 500.715L453.653 211.741C455.984 207.354 461.42 205.664 465.835 207.992C470.239 210.32 471.92 215.77 469.589 220.157L308.439 524.071C306.881 527.014 303.822 528.85 300.493 528.861C300.482 528.861 300.471 528.861 300.471 528.861Z" fill="#F5F8FA"/>
</g>
<defs>
<clipPath id="clip0_7_214">
<rect width="574" height="404" fill="white"/>
</clipPath>
</defs>
</svg>
