<svg width="37" height="37" viewBox="0 0 37 37" fill="none" xmlns="http://www.w3.org/2000/svg">
<g clip-path="url(#clip0_1_487)">
<path fill-rule="evenodd" clip-rule="evenodd" d="M30.4348 8.45513C30.4348 9.6482 29.4676 10.6151 28.2748 10.6151C27.0821 10.6151 26.1148 9.6482 26.1148 8.45513C26.1148 7.26207 27.0821 6.29513 28.2748 6.29513C29.4679 6.29513 30.4348 7.26207 30.4348 8.45513ZM18.6665 24.0634C15.3528 24.0634 12.6666 21.3772 12.6666 18.0635C12.6666 14.7498 15.3528 12.0636 18.6665 12.0636C21.9802 12.0636 24.6664 14.7498 24.6664 18.0635C24.6664 21.3772 21.9802 24.0634 18.6665 24.0634ZM18.6665 8.8202C13.5615 8.8202 9.42322 12.9585 9.42322 18.0635C9.42322 23.1684 13.5615 27.3068 18.6665 27.3068C23.7715 27.3068 27.9098 23.1684 27.9098 18.0635C27.9098 12.9585 23.7715 8.8202 18.6665 8.8202ZM18.6665 3.30685C23.4728 3.30685 24.042 3.32513 25.9399 3.41176C27.6949 3.49191 28.6481 3.78498 29.2823 4.03163C30.1224 4.35816 30.722 4.74826 31.352 5.37826C31.982 6.00798 32.3721 6.6076 32.6986 7.44798C32.945 8.0822 33.2383 9.03535 33.3185 10.7904C33.4051 12.6885 33.4234 13.2578 33.4234 18.064C33.4234 22.8703 33.4051 23.4396 33.3185 25.3374C33.2383 27.0924 32.9453 28.0456 32.6986 28.6798C32.3721 29.5199 31.982 30.1195 31.352 30.7495C30.7223 31.3795 30.1227 31.7696 29.2823 32.0962C28.6481 32.3425 27.6949 32.6359 25.9399 32.716C24.042 32.8027 23.4728 32.8209 18.6665 32.8209C13.8599 32.8209 13.2907 32.8027 11.3928 32.716C9.63782 32.6359 8.68466 32.3428 8.05044 32.0962C7.21035 31.7696 6.61072 31.3795 5.98072 30.7495C5.351 30.1198 4.96063 29.5202 4.6341 28.6798C4.38772 28.0456 4.09438 27.0924 4.01422 25.3374C3.9276 23.4393 3.90932 22.87 3.90932 18.064C3.90932 13.2578 3.9276 12.6885 4.01422 10.7904C4.09438 9.03535 4.38744 8.0822 4.6341 7.44798C4.96063 6.60788 5.35072 6.00826 5.98072 5.37826C6.61044 4.74826 7.21007 4.35816 8.05044 4.03163C8.68466 3.78526 9.63782 3.49191 11.3928 3.41176C13.291 3.32513 13.8602 3.30685 18.6665 3.30685ZM18.6665 0.0634766C13.7781 0.0634766 13.165 0.0842891 11.2452 0.171758C9.32928 0.259227 8.02063 0.563539 6.87594 1.00848C5.69216 1.46832 4.68838 2.08398 3.68769 3.08466C2.687 4.08535 2.07135 5.08913 1.6115 6.27291C1.16657 7.41788 0.862254 8.72626 0.774785 10.6421C0.687316 12.5619 0.666504 13.1751 0.666504 18.0635C0.666504 22.9519 0.687316 23.565 0.774785 25.4848C0.862254 27.4007 1.16657 28.7091 1.6115 29.854C2.07135 31.0378 2.687 32.0416 3.68769 33.0423C4.68838 34.043 5.69216 34.6584 6.87594 35.1185C8.02091 35.5634 9.32928 35.8677 11.2452 35.9552C13.165 36.0427 13.7781 36.0635 18.6665 36.0635C23.5549 36.0635 24.168 36.0427 26.0878 35.9552C28.0037 35.8677 29.3121 35.5634 30.4571 35.1185C31.6408 34.6584 32.6446 34.043 33.6453 33.0423C34.646 32.0416 35.2614 31.0378 35.7215 29.854C36.1664 28.7091 36.4708 27.4007 36.5582 25.4848C36.6457 23.565 36.6665 22.9519 36.6665 18.0635C36.6665 13.1751 36.6457 12.5619 36.5582 10.6421C36.4708 8.72626 36.1664 7.41788 35.7215 6.27291C35.2614 5.08913 34.646 4.08535 33.6453 3.08466C32.6446 2.08398 31.6408 1.4686 30.4571 1.00848C29.3121 0.563539 28.0037 0.259227 26.0878 0.171758C24.168 0.0842891 23.5549 0.0634766 18.6665 0.0634766Z" fill="#8FBEDC"/>
</g>
<defs>
<clipPath id="clip0_1_487">
<rect width="36" height="36" fill="white" transform="translate(0.666504 0.0634766)"/>
</clipPath>
</defs>
</svg>
