<svg width="534" height="346" viewBox="0 0 534 346" fill="none" xmlns="http://www.w3.org/2000/svg">
<g clip-path="url(#clip0_7_94)">
<path d="M534 162.446C534.001 176.211 528.795 189.47 519.423 199.571C510.05 209.673 497.203 215.872 483.448 216.931C482.984 216.966 482.514 217.001 482.043 217.022V165.157C482.044 164.639 481.928 164.127 481.705 163.659C481.481 163.191 481.155 162.779 480.752 162.453C480.705 162.405 480.653 162.363 480.597 162.327C480.546 162.285 480.492 162.248 480.435 162.215C479.942 161.898 479.377 161.709 478.792 161.667C478.207 161.624 477.621 161.728 477.086 161.969L476.504 160.694C477.141 160.405 477.833 160.254 478.533 160.253L438.54 125.875C438.849 125.525 439.172 125.181 439.495 124.838C447.034 116.908 456.784 111.416 467.484 109.071C478.185 106.727 489.343 107.639 499.519 111.688C509.695 115.737 518.42 122.738 524.566 131.787C530.713 140.835 533.999 151.515 534 162.446Z" fill="#8FBEDC"/>
<path d="M13.8868 199.707C13.6879 198.693 13.7142 197.648 13.9639 196.646C14.2136 195.643 14.6806 194.707 15.3319 193.904C15.9833 193.101 16.8032 192.45 17.7339 191.997C18.6646 191.545 19.6835 191.301 20.7187 191.284L52.2875 153.786L60.1688 163.841L27.9958 198.739C27.9096 200.476 27.1878 202.121 25.9671 203.363C24.7463 204.605 23.1115 205.357 21.3724 205.476C19.6333 205.595 17.9107 205.074 16.5311 204.011C15.1514 202.948 14.2105 201.416 13.8868 199.707Z" fill="#FFB8B8"/>
<path d="M163.795 153.554C163.574 153.873 163.379 154.209 163.211 154.558L128.741 159.475L123.507 152.844L112.445 159.418L122.843 175.594L164.883 163.229C165.992 164.231 167.381 164.872 168.864 165.067C170.348 165.262 171.856 165.002 173.188 164.322C174.52 163.641 175.612 162.572 176.32 161.256C177.028 159.941 177.318 158.442 177.152 156.958C176.985 155.474 176.369 154.076 175.387 152.949C174.404 151.823 173.102 151.022 171.652 150.653C170.202 150.283 168.674 150.363 167.27 150.881C165.867 151.399 164.655 152.332 163.795 153.554Z" fill="#FFB8B8"/>
<path d="M104.915 278.841L111.015 284.901L137.345 264.309L128.342 255.365L104.915 278.841Z" fill="#FFB8B8"/>
<path d="M117.139 302.24L97.9681 283.194L105.343 275.803L117.107 287.491C118.08 288.457 118.852 289.605 119.38 290.87C119.908 292.134 120.181 293.489 120.184 294.859C120.187 296.229 119.92 297.586 119.397 298.852C118.875 300.119 118.107 301.27 117.139 302.24Z" fill="#2F2E41"/>
<path d="M72.4907 336.969H81.0987L85.1934 303.84H72.4893L72.4907 336.969Z" fill="#FFB8B8"/>
<path d="M97.7002 344.944L70.647 344.945L70.6465 334.516L87.2473 334.515C88.62 334.515 89.9792 334.784 91.2473 335.308C92.5155 335.833 93.6678 336.601 94.6384 337.569C95.6091 338.538 96.379 339.687 96.9044 340.953C97.4297 342.218 97.7001 343.574 97.7002 344.944Z" fill="#2F2E41"/>
<path d="M70.6199 311.382L60.8151 239.23C59.2807 228.326 59.7569 217.234 62.2202 206.501C64.2322 197.876 66.9504 191.901 70.2993 188.744C70.8279 188.249 71.5044 187.941 72.2254 187.866L104.598 184.501C105.221 184.438 105.85 184.552 106.411 184.832C106.971 185.111 107.441 185.544 107.764 186.08L108.828 187.85C108.958 188.065 109.062 188.293 109.139 188.532L115.983 209.704C116.086 210.023 116.25 210.32 116.468 210.576C116.686 210.831 116.953 211.041 117.253 211.193C128.029 216.683 163.034 235.215 161.03 243.21C159.148 250.723 141.526 262.904 136.17 266.458C135.624 266.821 134.982 267.013 134.326 267.008C133.67 267.003 133.03 266.802 132.491 266.43L123.6 260.36C123.166 260.064 122.809 259.668 122.559 259.206C122.31 258.744 122.175 258.229 122.166 257.704C122.157 257.179 122.274 256.66 122.507 256.189C122.74 255.719 123.082 255.311 123.506 254.999L129.637 250.492C130.012 250.216 130.305 249.843 130.484 249.413C130.662 248.984 130.72 248.513 130.651 248.054C130.582 247.594 130.389 247.161 130.092 246.803C129.794 246.444 129.405 246.173 128.965 246.019L96.0369 234.491C95.6672 234.361 95.2726 234.318 94.8835 234.364C94.4945 234.411 94.1213 234.546 93.7926 234.759C93.464 234.972 93.1887 235.257 92.9879 235.593C92.787 235.928 92.666 236.306 92.6341 236.695L86.5627 310.739C86.4957 311.533 86.1428 312.276 85.5693 312.83C84.9959 313.384 84.2406 313.713 83.4433 313.754L74.0493 314.223C73.9921 314.226 73.9354 314.227 73.8788 314.227C73.0815 314.23 72.3105 313.943 71.7105 313.419C71.1104 312.895 70.7227 312.171 70.6199 311.382Z" fill="#154C79"/>
<path d="M85.4665 124.764C94.9905 124.764 102.711 117.06 102.711 107.557C102.711 98.0538 94.9905 90.3499 85.4665 90.3499C75.9424 90.3499 68.2217 98.0538 68.2217 107.557C68.2217 117.06 75.9424 124.764 85.4665 124.764Z" fill="#FFB8B8"/>
<path d="M69.3373 185.796L56.6436 139.582L56.8609 139.436C57.1336 139.252 84.4939 121.225 116.527 135.753L117.108 136.085L109.586 184.052C109.422 185.147 108.881 186.15 108.055 186.889C107.229 187.628 106.17 188.056 105.062 188.099L74.1103 189.287C74.0479 189.289 73.9857 189.291 73.9239 189.291C72.8805 189.293 71.8655 188.952 71.0362 188.32C70.2069 187.688 69.6098 186.801 69.3373 185.796Z" fill="#C2DBEB"/>
<path d="M56.1604 169.668L45.5884 157.537C45.0792 156.954 44.7925 156.211 44.7788 155.438C44.7652 154.665 45.0254 153.912 45.5137 153.311L56.5655 139.688L65.0495 141.997L69.5474 157.706L61.3462 169.396C61.0601 169.807 60.6836 170.146 60.2456 170.388C59.8075 170.63 59.3196 170.769 58.8194 170.794C58.7602 170.797 58.7014 170.798 58.6426 170.798C58.1717 170.799 57.7062 170.699 57.2778 170.504C56.8494 170.309 56.4683 170.024 56.1604 169.668Z" fill="#C2DBEB"/>
<path d="M114.623 167.141C114.122 167.116 113.634 166.977 113.196 166.735C112.758 166.493 112.382 166.154 112.096 165.743L103.895 154.053L107.839 137.517L115.651 135.391L117.108 136.085L127.928 149.658C128.417 150.259 128.677 151.012 128.663 151.785C128.649 152.558 128.363 153.301 127.854 153.884L117.282 166.015C116.974 166.371 116.593 166.656 116.164 166.851C115.736 167.046 115.27 167.146 114.799 167.145C114.741 167.145 114.682 167.144 114.623 167.141Z" fill="#C2DBEB"/>
<path d="M482.043 161.724C482.049 161.898 481.989 162.069 481.874 162.2C481.753 162.342 481.581 162.429 481.395 162.443C481.21 162.458 481.026 162.398 480.884 162.277L478.532 160.253L438.54 125.875L326.369 29.4388C325.729 28.8923 324.914 28.5925 324.072 28.5937C323.229 28.595 322.415 28.8973 321.777 29.4458L170.723 160.393L169.361 161.57C169.308 161.616 169.249 161.654 169.185 161.682C169.073 161.732 168.949 161.751 168.827 161.738C168.652 161.719 168.489 161.637 168.371 161.507C168.31 161.438 168.263 161.358 168.233 161.271C168.203 161.184 168.191 161.092 168.197 161C168.203 160.908 168.227 160.818 168.267 160.736C168.308 160.653 168.365 160.58 168.434 160.519L168.623 160.351L320.857 28.3879C321.752 27.6213 322.891 27.1986 324.07 27.1961C325.249 27.1935 326.391 27.6112 327.288 28.3739L439.494 124.838L481.797 161.213C481.871 161.276 481.931 161.355 481.973 161.443C482.016 161.531 482.039 161.626 482.043 161.724Z" fill="#3F3D56"/>
<path d="M396.757 182.413L394.91 177.34L388.549 159.826L374.844 122.113L359.523 79.9585L331.895 3.92359C331.352 2.44084 330.243 1.23304 328.81 0.56467C327.377 -0.103698 325.737 -0.178159 324.249 0.357592L164.509 58.1492C163.023 58.6899 161.812 59.7967 161.142 61.2268C160.472 62.657 160.398 64.2939 160.936 65.7786L200.107 173.571L200.774 175.414L241.89 194.007L253.447 199.234L255.322 200.081L304.253 222.213L306.148 221.526L338.242 209.918L386.653 192.403L393.176 190.042C394.663 189.502 395.875 188.395 396.546 186.965C397.217 185.535 397.293 183.898 396.757 182.413Z" fill="#C2DBEB"/>
<path d="M329.774 92.6251C328.977 90.4429 327.346 88.6651 325.237 87.6814C323.129 86.6977 320.715 86.5885 318.526 87.3777L255.321 110.252L224.8 121.293C223.716 121.684 222.719 122.285 221.868 123.061C221.016 123.836 220.326 124.772 219.837 125.814C219.347 126.856 219.069 127.984 219.017 129.133C218.965 130.282 219.14 131.431 219.533 132.513C219.926 133.594 220.529 134.588 221.307 135.437C222.086 136.286 223.024 136.974 224.069 137.461C225.113 137.948 226.244 138.225 227.396 138.276C228.548 138.327 229.699 138.15 230.782 137.757L255.321 128.881L324.515 103.849C326.702 103.053 328.484 101.425 329.47 99.3215C330.456 97.2176 330.565 94.8095 329.774 92.6251Z" fill="white"/>
<path d="M340.903 123.255C340.106 121.073 338.475 119.295 336.366 118.311C334.258 117.327 331.844 117.218 329.655 118.007L318.948 121.882L255.322 144.903L235.929 151.916C233.743 152.709 231.961 154.336 230.975 156.439C229.99 158.543 229.882 160.95 230.675 163.133C231.467 165.316 233.096 167.095 235.203 168.08C237.31 169.066 239.723 169.176 241.911 168.387L255.322 163.532L335.645 134.471C335.827 134.408 336.002 134.331 336.178 134.254C338.217 133.361 339.84 131.728 340.718 129.686C341.595 127.643 341.661 125.344 340.903 123.255Z" fill="white"/>
<path d="M352.15 154.207C351.355 152.025 349.725 150.247 347.618 149.263C345.51 148.28 343.098 148.17 340.91 148.959L310.88 159.826L287.633 168.24L255.321 179.925L247.177 182.875C245.294 183.559 243.703 184.864 242.665 186.574C241.626 188.283 241.204 190.295 241.468 192.277C241.549 192.866 241.69 193.446 241.89 194.007L253.446 199.234L255.321 198.554H255.335L313.969 177.34L346.891 165.43C349.08 164.637 350.863 163.009 351.849 160.904C352.835 158.8 352.943 156.391 352.15 154.207Z" fill="white"/>
<path d="M286.341 62.5137C285.545 60.3316 283.913 58.5538 281.804 57.5701C279.696 56.5864 277.283 56.4772 275.093 57.2663L238.794 70.3954C236.607 71.1884 234.825 72.8154 233.84 74.9187C232.854 77.0221 232.746 79.4297 233.539 81.6125C234.332 83.7954 235.961 85.5749 238.068 86.56C240.175 87.5451 242.587 87.6552 244.776 86.8662L256.263 82.7117L263.866 79.9584L281.083 73.7302C283.269 72.9366 285.051 71.31 286.037 69.2071C287.023 67.1043 287.132 64.6971 286.341 62.5137Z" fill="white"/>
<path d="M431.202 79.9585H261.289C260.287 79.9595 259.301 80.2122 258.423 80.6934C257.544 81.1746 256.801 81.8687 256.262 82.7118C255.646 83.6664 255.319 84.7781 255.321 85.9135V200.081L304.252 222.213L311.147 225.331L322.037 230.256C322.674 230.543 323.366 230.692 324.066 230.692C324.766 230.692 325.458 230.543 326.095 230.256L336.985 225.331L371.066 209.918L402.83 195.549L437.17 180.024V85.9135C437.169 84.3344 436.54 82.8204 435.421 81.7038C434.302 80.5872 432.785 79.9595 431.202 79.9585Z" fill="#154C79"/>
<path d="M396.096 159.825H296.395C294.128 159.827 291.95 160.704 290.316 162.272C288.683 163.841 287.721 165.979 287.633 168.24C287.621 168.354 287.616 168.468 287.619 168.583C287.622 170.904 288.548 173.13 290.193 174.772C291.838 176.413 294.069 177.337 296.395 177.34H396.096C398.424 177.34 400.656 176.418 402.302 174.775C403.948 173.133 404.873 170.905 404.873 168.583C404.873 166.26 403.948 164.033 402.302 162.39C400.656 160.748 398.424 159.825 396.096 159.825Z" fill="white"/>
<path d="M401.777 194.491C400.195 193.14 398.179 192.399 396.097 192.403H296.396C294.068 192.403 291.836 193.325 290.19 194.968C288.544 196.61 287.619 198.838 287.619 201.16C287.619 203.483 288.544 205.71 290.19 207.353C291.836 208.995 294.068 209.918 296.396 209.918H371.066L402.83 195.548C402.51 195.167 402.157 194.813 401.777 194.491Z" fill="white"/>
<path d="M311.147 225.331L322.037 230.256C322.675 230.543 323.367 230.692 324.066 230.692C324.766 230.692 325.458 230.543 326.096 230.256L336.985 225.331H311.147Z" fill="white"/>
<path d="M373.797 122.491C373.179 120.805 372.057 119.349 370.583 118.321C369.109 117.292 367.353 116.74 365.554 116.739H326.938C325.252 116.741 323.602 117.226 322.185 118.138C320.768 119.05 319.644 120.35 318.948 121.882C318.427 123.016 318.159 124.249 318.161 125.497C318.164 127.818 319.09 130.044 320.735 131.685C322.381 133.327 324.611 134.251 326.938 134.254H365.554C366.966 134.254 368.357 133.914 369.609 133.263C370.862 132.613 371.938 131.67 372.747 130.515C373.556 129.361 374.074 128.028 374.257 126.632C374.44 125.235 374.282 123.814 373.797 122.491Z" fill="white"/>
<path d="M367.66 209.918L333.579 225.331L325.512 228.981C325.058 229.185 324.565 229.291 324.066 229.291C323.567 229.291 323.074 229.185 322.619 228.981L314.552 225.331H311.147L322.037 230.256C322.674 230.543 323.366 230.692 324.066 230.692C324.766 230.692 325.457 230.543 326.095 230.256L336.985 225.331L371.066 209.918H367.66ZM367.66 209.918L333.579 225.331L325.512 228.981C325.058 229.185 324.565 229.291 324.066 229.291C323.567 229.291 323.074 229.185 322.619 228.981L314.552 225.331H311.147L322.037 230.256C322.674 230.543 323.366 230.692 324.066 230.692C324.766 230.692 325.457 230.543 326.095 230.256L336.985 225.331L371.066 209.918H367.66ZM367.66 209.918L333.579 225.331L325.512 228.981C325.058 229.185 324.565 229.291 324.066 229.291C323.567 229.291 323.074 229.185 322.619 228.981L314.552 225.331H311.147L322.037 230.256C322.674 230.543 323.366 230.692 324.066 230.692C324.766 230.692 325.457 230.543 326.095 230.256L336.985 225.331L371.066 209.918H367.66ZM482.043 161.724C481.784 161.467 481.499 161.237 481.193 161.038C480.504 160.591 479.712 160.326 478.892 160.266C478.072 160.206 477.251 160.353 476.503 160.694L401.777 194.491L367.66 209.918L333.579 225.331L325.512 228.981C325.058 229.185 324.565 229.291 324.066 229.291C323.567 229.291 323.074 229.185 322.619 228.981L314.552 225.331L306.148 221.526L255.335 198.554L255.321 198.547L241.468 192.277L200.107 173.571L171.629 160.694C171.339 160.561 171.035 160.46 170.723 160.393C170.035 160.222 169.317 160.207 168.623 160.351C167.513 160.578 166.515 161.18 165.797 162.055C165.08 162.931 164.687 164.026 164.685 165.157V341.096C164.686 342.396 165.204 343.643 166.126 344.562C167.047 345.482 168.296 345.999 169.599 346H478.532C479.835 345.999 481.085 345.482 482.006 344.562C482.927 343.643 483.446 342.396 483.447 341.096V165.157C483.449 163.873 482.945 162.64 482.043 161.724ZM482.043 341.096C482.042 342.025 481.673 342.916 481.014 343.573C480.356 344.229 479.463 344.599 478.532 344.599H169.599C168.668 344.599 167.776 344.229 167.117 343.573C166.459 342.916 166.089 342.025 166.089 341.096V165.157C166.089 164.572 166.236 163.996 166.517 163.482C166.798 162.968 167.204 162.532 167.697 162.215C168.044 161.993 168.426 161.832 168.827 161.738C168.945 161.713 169.065 161.694 169.185 161.682C169.322 161.662 169.461 161.653 169.599 161.654C170.099 161.655 170.592 161.762 171.046 161.969L200.773 175.414L241.89 194.007L253.447 199.234L255.321 200.081L304.252 222.213L311.147 225.331L322.037 230.256C322.674 230.543 323.366 230.692 324.066 230.692C324.766 230.692 325.457 230.543 326.095 230.256L336.985 225.331L371.066 209.918L402.83 195.549L477.086 161.969C477.62 161.728 478.207 161.624 478.792 161.667C479.377 161.709 479.942 161.898 480.435 162.215C480.492 162.248 480.545 162.285 480.596 162.327C480.653 162.363 480.704 162.405 480.751 162.453C481.155 162.779 481.48 163.191 481.704 163.659C481.928 164.127 482.043 164.639 482.043 165.157L482.043 341.096ZM367.66 209.918L333.579 225.331L325.512 228.981C325.058 229.185 324.565 229.291 324.066 229.291C323.567 229.291 323.074 229.185 322.619 228.981L314.552 225.331H311.147L322.037 230.256C322.674 230.543 323.366 230.692 324.066 230.692C324.766 230.692 325.457 230.543 326.095 230.256L336.985 225.331L371.066 209.918H367.66ZM367.66 209.918L333.579 225.331L325.512 228.981C325.058 229.185 324.565 229.291 324.066 229.291C323.567 229.291 323.074 229.185 322.619 228.981L314.552 225.331H311.147L322.037 230.256C322.674 230.543 323.366 230.692 324.066 230.692C324.766 230.692 325.457 230.543 326.095 230.256L336.985 225.331L371.066 209.918H367.66ZM253.447 199.234L255.321 200.081V198.554L253.447 199.234ZM367.66 209.918L333.579 225.331L325.512 228.981C325.058 229.185 324.565 229.291 324.066 229.291C323.567 229.291 323.074 229.185 322.619 228.981L314.552 225.331H311.147L322.037 230.256C322.674 230.543 323.366 230.692 324.066 230.692C324.766 230.692 325.457 230.543 326.095 230.256L336.985 225.331L371.066 209.918H367.66Z" fill="#3F3D56"/>
<path d="M123.24 346H43.9004C43.7141 346 43.5356 345.926 43.4039 345.795C43.2722 345.663 43.1982 345.485 43.1982 345.299C43.1982 345.114 43.2722 344.935 43.4039 344.804C43.5356 344.673 43.7141 344.599 43.9004 344.599H123.24C123.426 344.599 123.605 344.673 123.736 344.804C123.868 344.935 123.942 345.114 123.942 345.299C123.942 345.485 123.868 345.663 123.736 345.795C123.605 345.926 123.426 346 123.24 346Z" fill="#3F3D56"/>
<path d="M78.9101 120.141C77.6147 119.485 76.5377 118.469 75.8093 117.215C75.0809 115.961 74.7324 114.523 74.8059 113.075C74.8794 111.628 75.3719 110.233 76.2236 109.059C77.0753 107.885 78.2498 106.982 79.605 106.46C84.8087 104.456 90.6425 108.546 96.0972 107.383C101.534 106.224 104.679 99.7387 103.381 94.3447C102.084 88.9506 97.3604 84.8878 92.1522 82.9474C88.7507 81.6834 85.1078 81.1987 81.4932 81.5293C77.8786 81.8599 74.3848 82.9973 71.2703 84.8573C68.1879 86.7719 65.6208 89.4086 63.7921 92.5384C61.9634 95.6682 60.9285 99.1963 60.7774 102.816C60.7066 106.439 61.5936 110.017 63.3493 113.189C65.105 116.361 67.6672 119.015 70.7781 120.885C72.1645 121.682 73.7782 122.322 75.3374 121.963C76.6175 121.548 77.8234 120.933 78.9101 120.141Z" fill="#2F2E41"/>
<path d="M73.3213 84.4379C68.7326 78.3649 62.5383 73.3758 55.3304 70.9023C48.1226 68.4288 39.8858 68.6273 33.1163 72.1229C26.3468 75.6185 21.2983 82.5608 20.7714 90.1482C19.8943 102.776 30.7081 113.51 31.8179 126.12C32.1697 130.117 31.5195 134.138 29.926 137.822C28.3325 141.506 25.8457 144.736 22.6896 147.222C19.5335 149.708 15.8072 151.372 11.8463 152.063C7.88545 152.754 3.81446 152.452 0 151.182C2.71688 153.414 5.86689 155.061 9.25214 156.019C12.6374 156.978 16.1847 157.228 19.6714 156.753C23.1523 156.232 26.4733 154.944 29.3936 152.983C32.3139 151.022 34.7603 148.438 36.5554 145.416C38.9891 141.197 39.9885 136.296 40.3767 131.443C40.9864 123.77 40.1607 116.051 37.9419 108.679C36.729 104.657 35.084 100.517 35.8532 96.3878C36.2916 94.2399 37.3529 92.2678 38.9052 90.7166C40.4575 89.1654 42.4323 88.1036 44.5844 87.6629C48.0622 87.0127 51.618 88.0718 54.9388 89.2907C58.2596 90.5096 61.6077 91.9202 65.1451 92.0009C68.6826 92.0816 72.5355 90.4659 73.9026 87.2094L73.3213 84.4379Z" fill="#2F2E41"/>
</g>
<defs>
<clipPath id="clip0_7_94">
<rect width="534" height="346" fill="white"/>
</clipPath>
</defs>
</svg>
