<svg width="72" height="66" viewBox="0 0 72 66" fill="none" xmlns="http://www.w3.org/2000/svg">
<path d="M56.2592 25.8326H16.3925C15.7783 25.8326 15.2803 25.3334 15.2803 24.7177V2.06424C15.2803 1.44854 15.7783 0.949316 16.3925 0.949316L56.3339 0.942383C56.6299 0.942383 56.9135 1.06025 57.121 1.26965C57.3299 1.48043 57.4475 1.76471 57.4461 2.06146L57.3714 24.7218C57.37 25.3348 56.872 25.8326 56.2592 25.8326ZM17.5047 23.6028H55.1497L55.2175 3.17361L17.5047 3.18055V23.6028Z" fill="#154C79"/>
<path d="M36.3815 65.5136C36.0578 65.5136 35.7494 65.3722 35.5391 65.1253L0.21668 23.9467C-0.183108 23.4794 -0.13054 22.7763 0.335648 22.3742C0.800453 21.9734 1.50458 22.0261 1.90436 22.4934L36.3829 62.6875L70.8407 22.4879C71.2433 22.0206 71.946 21.9692 72.4095 22.3686C72.8757 22.7694 72.9282 23.4738 72.5284 23.9412L37.2268 65.1253C37.0151 65.3722 36.7066 65.5136 36.3815 65.5136Z" fill="#154C79"/>
<path d="M56.0421 26.2472C55.7253 26.2472 55.4196 26.1113 55.2079 25.87L36.1094 4.16506L17.0095 25.87C16.7758 26.1348 16.4272 26.2707 16.0786 26.243L1.13701 24.945C0.524189 24.8923 -0.0125501 24.5096 -0.264319 23.9452C-0.514705 23.3822 -0.441388 22.7249 -0.0706508 22.2312L15.2873 1.80764C15.6566 1.31535 16.3538 1.21551 16.8449 1.58854C17.336 1.95879 17.4328 2.65909 17.0635 3.14998L2.28381 22.8053L15.712 23.9716L35.2739 1.74108C35.6958 1.26127 36.5217 1.26127 36.9422 1.74108L56.5041 23.973L70.6945 22.7471C70.6945 22.7457 70.6959 22.7443 70.6959 22.7443L55.4943 2.74506C55.1222 2.25555 55.2162 1.55526 55.7045 1.18223C56.1956 0.809203 56.8915 0.903499 57.2636 1.39301L72.7834 21.8097C72.9729 22.0579 73.049 22.3727 72.9936 22.6791C72.7432 24.0991 72.129 24.8618 71.1676 24.945L56.1375 26.243C56.1057 26.2458 56.0739 26.2472 56.0421 26.2472Z" fill="#154C79"/>
<path d="M36.3719 63.231C35.9624 63.231 35.5848 63.005 35.3911 62.643L15.4114 25.2432C15.1209 24.701 15.3257 24.0243 15.8666 23.7345C16.4088 23.4433 17.0825 23.6485 17.3716 24.1907L36.365 59.7434L55.2809 23.937C55.5686 23.3934 56.2396 23.184 56.7846 23.4724C57.3283 23.7608 57.5358 24.4362 57.248 24.9798L37.3555 62.6375C37.1632 63.0022 36.7855 63.2296 36.3747 63.231C36.3733 63.231 36.3719 63.231 36.3719 63.231Z" fill="#154C79"/>
</svg>
