<svg width="37" height="37" viewBox="0 0 37 37" fill="none" xmlns="http://www.w3.org/2000/svg">
<g clip-path="url(#clip0_1_492)">
<path d="M36.6585 6.9001C35.3344 7.48848 33.9124 7.8856 32.4172 8.06223C33.9416 7.14873 35.1127 5.70198 35.6651 3.97848C34.2375 4.82335 32.658 5.43985 30.9761 5.76948C29.6284 4.3351 27.7091 3.43848 25.584 3.43848C21.5059 3.43848 18.2017 6.74373 18.2017 10.8219C18.2017 11.4001 18.2659 11.9649 18.3919 12.5049C12.255 12.1966 6.81448 9.25698 3.17173 4.7896C2.53723 5.88085 2.17273 7.14873 2.17273 8.5021C2.17273 11.0649 3.47661 13.3239 5.45661 14.6491C4.24723 14.6097 3.10873 14.279 2.11311 13.7255C2.11198 13.7559 2.11198 13.7885 2.11198 13.8177C2.11198 17.3964 4.65673 20.381 8.03511 21.0594C7.41636 21.227 6.76386 21.3181 6.08998 21.3181C5.61298 21.3181 5.15173 21.272 4.70173 21.1865C5.63998 24.1182 8.3681 26.2535 11.598 26.3142C9.07236 28.2942 5.88861 29.4766 2.42923 29.4766C1.83298 29.4766 1.24461 29.4417 0.66748 29.3731C3.93448 31.4656 7.81573 32.6885 11.9861 32.6885C25.5671 32.6885 32.9955 21.4374 32.9955 11.6791C32.9955 11.3596 32.9865 11.0401 32.973 10.7229C34.4164 9.68223 35.6674 8.38285 36.6585 6.9001Z" fill="#8FBEDC"/>
</g>
<defs>
<clipPath id="clip0_1_492">
<rect width="36" height="36" fill="white" transform="translate(0.666504 0.0634766)"/>
</clipPath>
</defs>
</svg>
