<svg id="visual" viewBox="0 0 900 900" width="900" height="900" xmlns="http://www.w3.org/2000/svg" xmlns:xlink="http://www.w3.org/1999/xlink" version="1.1"><path d="M0 659L21.5 671.2C43 683.3 86 707.7 128.8 712.2C171.7 716.7 214.3 701.3 257.2 689.7C300 678 343 670 385.8 671.8C428.7 673.7 471.3 685.3 514.2 705.2C557 725 600 753 642.8 766.3C685.7 779.7 728.3 778.3 771.2 760.8C814 743.3 857 709.7 878.5 692.8L900 676L900 901L878.5 901C857 901 814 901 771.2 901C728.3 901 685.7 901 642.8 901C600 901 557 901 514.2 901C471.3 901 428.7 901 385.8 901C343 901 300 901 257.2 901C214.3 901 171.7 901 128.8 901C86 901 43 901 21.5 901L0 901Z" fill="#0066FF" stroke-linecap="round" stroke-linejoin="miter"></path></svg>